<svg width="24" height="25" viewBox="0 0 24 25" fill="none" xmlns="http://www.w3.org/2000/svg">
<path d="M15 12.5C15 13.2956 14.6839 14.0587 14.1213 14.6213C13.5587 15.1839 12.7956 15.5 12 15.5C11.2044 15.5 10.4413 15.1839 9.87868 14.6213C9.31607 14.0587 9 13.2956 9 12.5C9 11.7044 9.31607 10.9413 9.87868 10.3787C10.4413 9.81607 11.2044 9.5 12 9.5C12.7956 9.5 13.5587 9.81607 14.1213 10.3787C14.6839 10.9413 15 11.7044 15 12.5Z" fill="#A3AED0"/>
<path d="M21.894 12.053C19.736 7.736 15.904 5.5 12 5.5C8.09595 5.5 4.26395 7.736 2.10595 12.053C2.0366 12.1918 2.00049 12.3448 2.00049 12.5C2.00049 12.6552 2.0366 12.8082 2.10595 12.947C4.26395 17.264 8.09595 19.5 12 19.5C15.904 19.5 19.736 17.264 21.894 12.947C21.9633 12.8082 21.9994 12.6552 21.9994 12.5C21.9994 12.3448 21.9633 12.1918 21.894 12.053ZM12 17.5C9.03095 17.5 5.99795 15.88 4.12995 12.5C5.99795 9.12 9.02995 7.5 12 7.5C14.97 7.5 18.002 9.12 19.87 12.5C18.002 15.88 14.969 17.5 12 17.5Z" fill="#A3AED0"/>
</svg>
