<svg width="24" height="24" viewBox="0 0 24 24" fill="none" xmlns="http://www.w3.org/2000/svg">
<path fill-rule="evenodd" clip-rule="evenodd" d="M19.696 6.28196C19.8864 6.46655 19.9957 6.71923 19.9999 6.9844C20.004 7.24958 19.9026 7.50553 19.718 7.69596L10.313 17.4C10.1825 17.5345 10.0263 17.6415 9.85367 17.7146C9.68103 17.7876 9.49548 17.8253 9.30802 17.8253C9.12056 17.8253 8.93501 17.7876 8.76237 17.7146C8.58973 17.6415 8.43353 17.5345 8.30302 17.4L4.28202 13.252C4.18943 13.1579 4.11638 13.0465 4.06706 12.9241C4.01775 12.8016 3.99316 12.6707 3.9947 12.5387C3.99624 12.4067 4.02389 12.2764 4.07605 12.1552C4.12821 12.0339 4.20385 11.9242 4.29861 11.8324C4.39337 11.7405 4.50537 11.6683 4.62817 11.62C4.75096 11.5716 4.88211 11.548 5.01406 11.5506C5.14601 11.5531 5.27614 11.5818 5.39696 11.6349C5.51778 11.688 5.6269 11.7645 5.71802 11.86L9.30802 15.563L18.282 6.30396C18.4666 6.11354 18.7193 6.00425 18.9845 6.00012C19.2496 5.996 19.5056 6.09737 19.696 6.28196Z" fill="#A3AED0"/>
</svg>
