<svg width="24" height="25" viewBox="0 0 24 25" fill="none" xmlns="http://www.w3.org/2000/svg">
<path d="M4.70695 3.79292C4.51835 3.61076 4.26575 3.50997 4.00355 3.51224C3.74136 3.51452 3.49054 3.61969 3.30514 3.8051C3.11973 3.99051 3.01456 4.24132 3.01228 4.50352C3.01 4.76571 3.1108 5.01832 3.29295 5.20692L5.71695 7.63092C4.28695 8.70692 3.03895 10.1849 2.10595 12.0529C2.0366 12.1917 2.00049 12.3448 2.00049 12.4999C2.00049 12.6551 2.0366 12.8081 2.10595 12.9469C4.26395 17.2639 8.09595 19.4999 12 19.4999C13.555 19.4999 15.1 19.1449 16.53 18.4449L19.293 21.2069C19.4816 21.3891 19.7342 21.4899 19.9964 21.4876C20.2586 21.4853 20.5094 21.3801 20.6948 21.1947C20.8802 21.0093 20.9854 20.7585 20.9876 20.4963C20.9899 20.2341 20.8891 19.9815 20.707 19.7929L4.70695 3.79292ZM15.014 16.9279C14.034 17.3109 13.014 17.4999 12 17.4999C9.03095 17.4999 5.99795 15.8799 4.12995 12.4999C4.94695 11.0209 5.98795 9.87992 7.14795 9.06292L9.29195 11.2069C9.02404 11.7669 8.93642 12.3961 9.04117 13.008C9.14592 13.6198 9.43789 14.1841 9.87682 14.623C10.3158 15.062 10.88 15.354 11.4919 15.4587C12.1037 15.5635 12.733 15.4758 13.293 15.2079L15.014 16.9279ZM18.552 14.3959C19.035 13.8399 19.478 13.2089 19.87 12.4999C18.002 9.11992 14.97 7.49992 12 7.49992C11.888 7.49992 11.776 7.50225 11.664 7.50692L9.87895 5.72292C10.5762 5.57467 11.2871 5.49993 12 5.49992C15.903 5.49992 19.736 7.73592 21.894 12.0529C21.9633 12.1917 21.9994 12.3448 21.9994 12.4999C21.9994 12.6551 21.9633 12.8081 21.894 12.9469C21.3825 13.9832 20.7351 14.9467 19.969 15.8119L18.552 14.3959Z" fill="#A3AED0"/>
</svg>
