<svg width="30" height="30" viewBox="0 0 30 30" fill="none" xmlns="http://www.w3.org/2000/svg">
<path d="M23.6562 3.92147C23.3048 3.56979 22.8874 3.29084 22.4281 3.10055C21.9687 2.91027 21.4763 2.81238 20.9791 2.8125C20.4819 2.81262 19.9896 2.91073 19.5303 3.10123C19.071 3.29173 18.6538 3.57088 18.3025 3.92272L6.41875 15.8227C5.71067 16.5324 5.31285 17.4939 5.3125 18.4965V22.5002C5.3125 23.0177 5.7325 23.4377 6.25 23.4377H10.2787C11.2825 23.4377 12.245 23.0377 12.9537 22.329L24.8288 10.4465C25.5371 9.73644 25.9349 8.77443 25.9349 7.77147C25.9349 6.76851 25.5371 5.80651 24.8288 5.09647L23.6562 3.92147ZM5 25.3127C4.75136 25.3127 4.5129 25.4115 4.33709 25.5873C4.16127 25.7631 4.0625 26.0016 4.0625 26.2502C4.0625 26.4989 4.16127 26.7373 4.33709 26.9131C4.5129 27.0889 4.75136 27.1877 5 27.1877H25C25.2486 27.1877 25.4871 27.0889 25.6629 26.9131C25.8387 26.7373 25.9375 26.4989 25.9375 26.2502C25.9375 26.0016 25.8387 25.7631 25.6629 25.5873C25.4871 25.4115 25.2486 25.3127 25 25.3127H5Z" fill="#8E99B5"/>
</svg>
