<svg width="16" height="16" viewBox="0 0 16 16" fill="none" xmlns="http://www.w3.org/2000/svg">
<g id="famicons:eye-off-outline">
<path id="Vector" d="M13.5001 14C13.4345 14.0001 13.3694 13.9872 13.3088 13.962C13.2481 13.9369 13.193 13.9 13.1467 13.8534L2.1467 2.85342C2.05689 2.75889 2.00756 2.63301 2.00923 2.50263C2.0109 2.37225 2.06343 2.24768 2.15563 2.15548C2.24783 2.06328 2.3724 2.01074 2.50279 2.00907C2.63317 2.0074 2.75904 2.05673 2.85357 2.14654L13.8536 13.1465C13.9235 13.2165 13.971 13.3055 13.9903 13.4025C14.0096 13.4995 13.9997 13.6 13.9619 13.6913C13.924 13.7826 13.86 13.8607 13.7778 13.9156C13.6956 13.9706 13.599 13.9999 13.5001 14ZM7.98951 12C6.69295 12 5.44264 11.6162 4.27326 10.8594C3.20857 10.1719 2.25013 9.18717 1.50138 8.01561V8.01311C2.12451 7.12029 2.80701 6.36529 3.54013 5.75654C3.54677 5.751 3.55218 5.74414 3.55602 5.7364C3.55987 5.72866 3.56207 5.7202 3.56248 5.71157C3.56289 5.70293 3.5615 5.69431 3.55841 5.68623C3.55532 5.67816 3.55059 5.67082 3.54451 5.66467L2.92201 5.04311C2.91095 5.03195 2.89609 5.02537 2.8804 5.02468C2.86471 5.02398 2.84933 5.02922 2.83732 5.03936C2.05857 5.69561 1.33576 6.50061 0.678572 7.44311C0.565505 7.60539 0.503235 7.79762 0.499673 7.99538C0.496112 8.19313 0.551421 8.38748 0.658572 8.55373C1.48388 9.84529 2.54607 10.9331 3.72982 11.699C5.06263 12.5625 6.49701 13 7.98951 13C8.79512 12.9975 9.59503 12.8647 10.3583 12.6069C10.3683 12.6034 10.3774 12.5975 10.3845 12.5896C10.3916 12.5818 10.3967 12.5722 10.3991 12.5618C10.4015 12.5515 10.4012 12.5407 10.3983 12.5305C10.3953 12.5202 10.3899 12.5109 10.3823 12.5034L9.70795 11.829C9.69242 11.8139 9.67323 11.8031 9.65224 11.7976C9.63126 11.7921 9.60921 11.7922 9.58826 11.7978C9.06599 11.9323 8.52882 12.0002 7.98951 12ZM15.3389 7.45623C14.512 6.17748 13.4392 5.09123 12.2367 4.31467C10.9064 3.45467 9.43764 2.99998 7.98951 2.99998C7.19244 3.00137 6.40128 3.13691 5.6492 3.40092C5.63918 3.40441 5.63021 3.41039 5.62314 3.4183C5.61607 3.42621 5.61113 3.43579 5.60878 3.44614C5.60644 3.45648 5.60677 3.46726 5.60974 3.47744C5.61271 3.48763 5.61822 3.49689 5.62576 3.50436L6.2992 4.17779C6.31488 4.1932 6.33434 4.20421 6.35563 4.2097C6.37692 4.21518 6.39927 4.21496 6.42045 4.20904C6.932 4.07065 7.45957 4.00036 7.98951 3.99998C9.26107 3.99998 10.5076 4.38842 11.6942 5.15623C12.7789 5.85623 13.7486 6.83998 14.4992 7.99998C14.4998 8.0007 14.5001 8.00158 14.5001 8.00248C14.5001 8.00339 14.4998 8.00427 14.4992 8.00498C13.9543 8.86278 13.2782 9.62972 12.4954 10.2778C12.4887 10.2833 12.4833 10.2902 12.4794 10.2979C12.4755 10.3057 12.4732 10.3142 12.4728 10.3229C12.4723 10.3315 12.4737 10.3402 12.4768 10.3483C12.4799 10.3564 12.4847 10.3638 12.4908 10.37L13.1126 10.9915C13.1236 11.0027 13.1384 11.0092 13.154 11.01C13.1697 11.0107 13.185 11.0056 13.197 10.9956C14.0326 10.292 14.756 9.46499 15.342 8.54311C15.4456 8.38065 15.5004 8.19188 15.4998 7.99921C15.4993 7.80654 15.4434 7.61809 15.3389 7.45623Z" fill="#A3AED0"/>
<path id="Vector_2" d="M8.00014 5C7.77543 4.99991 7.55142 5.02507 7.33233 5.075C7.32127 5.0773 7.31103 5.08255 7.30271 5.09021C7.2944 5.09786 7.28831 5.10763 7.28511 5.11846C7.2819 5.1293 7.28169 5.14081 7.28451 5.15175C7.28732 5.1627 7.29305 5.17268 7.30108 5.18063L10.8195 8.69813C10.8275 8.70616 10.8374 8.71189 10.8484 8.7147C10.8593 8.71752 10.8708 8.71731 10.8817 8.7141C10.8925 8.71089 10.9023 8.70481 10.9099 8.69649C10.9176 8.68818 10.9228 8.67794 10.9251 8.66688C11.0253 8.22751 11.0252 7.77123 10.9249 7.33191C10.8245 6.89259 10.6265 6.48152 10.3455 6.12923C10.0644 5.77695 9.70768 5.49249 9.30166 5.297C8.89563 5.1015 8.45078 4.99999 8.00014 5ZM5.18077 7.30188C5.17282 7.29384 5.16284 7.28811 5.1519 7.2853C5.14095 7.28249 5.12945 7.28269 5.11861 7.2859C5.10777 7.28911 5.098 7.29519 5.09035 7.30351C5.0827 7.31182 5.07744 7.32206 5.07514 7.33313C4.96181 7.82823 4.97605 8.34401 5.1165 8.83212C5.25696 9.32022 5.51904 9.76468 5.87819 10.1238C6.23734 10.483 6.6818 10.7451 7.1699 10.8855C7.65801 11.026 8.17379 11.0402 8.66889 10.9269C8.67996 10.9246 8.6902 10.9193 8.69851 10.9117C8.70683 10.904 8.71291 10.8942 8.71612 10.8834C8.71933 10.8726 8.71953 10.8611 8.71672 10.8501C8.71391 10.8392 8.70818 10.8292 8.70014 10.8213L5.18077 7.30188Z" fill="#A3AED0"/>
</g>
</svg>
