<svg width="20" height="20" viewBox="0 0 20 20" fill="none" xmlns="http://www.w3.org/2000/svg">
<g id="itesm 1" clip-path="url(#clip0_468_506)">
<g id="layer1">
<path id="path847" d="M8.80302 19.8944V18.4516C7.06293 18.313 5.63485 17.4528 4.47971 16.1972H15.6032C14.4922 17.4704 12.9897 18.3163 11.2799 18.4516V19.8944C14.6565 19.2646 17.5818 17.4387 19.0569 14.2133C21.4813 8.91226 18.7374 2.43771 13.1713 0.596651C12.2996 0.308311 11.3445 0.111771 10.4243 0.100814C7.84509 0.0701092 5.33564 0.881817 3.39889 2.63326C-0.718329 6.35652 -1.02713 13.2598 3.08383 17.14C4.72529 18.6893 6.61655 19.4866 8.80302 19.8944ZM10.064 0.596615C10.2994 0.802637 10.5175 1.00845 10.6899 1.27294C11.6326 2.71906 10.0311 3.96607 9.11825 4.88001C8.18762 5.81176 7.26216 6.74901 6.32613 7.67531C5.54424 8.44907 4.73299 9.18644 4.43112 10.2906C4.22392 11.0485 4.42414 11.752 4.52475 12.4999C4.22333 12.2691 4.00461 11.9192 3.80713 11.5982C2.23899 9.04888 4.89448 6.89663 6.55895 5.31737C6.9403 4.95549 7.30562 4.57566 7.67715 4.20369C8.1692 3.71105 8.69209 3.23555 9.15545 2.71577C9.48767 2.34316 9.76752 1.88903 9.9091 1.40821C9.9858 1.14773 9.96112 0.841517 10.064 0.596615ZM12.766 1.27294C14.2404 2.40524 13.0292 4.12054 12.0905 5.06036C10.7032 6.44931 9.33753 7.86594 7.90233 9.20448C6.89486 10.144 5.74167 11.39 5.74068 12.8606C4.59244 11.9081 5.23639 10.0422 5.96112 9.07323C6.56382 8.26745 7.35876 7.60028 8.08246 6.90723C8.72547 6.29136 9.3228 5.62653 9.97391 5.01929C10.8025 4.24656 11.6926 3.46171 12.2966 2.49033C12.5422 2.09526 12.5905 1.6804 12.766 1.27294ZM14.072 3.70771C14.2267 4.19205 14.3407 4.68356 14.2895 5.19563C14.1518 6.57402 12.7918 7.5803 11.8575 8.45664C11.1961 9.0771 10.5698 9.73909 9.92887 10.3808C8.86264 11.4483 7.7983 12.5314 7.51787 14.078C7.41623 14.6387 7.51292 15.1047 7.58709 15.6561C6.19818 14.8501 6.39863 12.7149 7.03033 11.508C7.49751 10.6155 8.18338 9.99113 8.89308 9.29799C9.66241 8.54664 10.4141 7.77815 11.1897 7.03365C11.9074 6.3447 12.6469 5.64985 13.2788 4.88001C13.5758 4.51799 13.7671 4.04578 14.072 3.70771ZM16.3237 4.69966C16.4976 5.23472 16.6298 5.80148 16.528 6.36792C16.3198 7.52579 15.1775 8.41439 14.3631 9.16796C13.6898 9.79099 13.0619 10.4607 12.4058 11.1015C11.075 12.4013 9.79377 13.6882 9.79377 15.6561H9.74874C9.34262 14.9972 8.92285 14.3941 8.93879 13.5821C8.96041 12.4833 9.7377 11.6092 10.4693 10.8768C11.6552 9.68945 12.872 8.53122 14.072 7.35919C14.6156 6.82837 15.1536 6.28623 15.628 5.6916C15.8741 5.3831 16.0483 4.97253 16.3237 4.69966ZM16.2787 8.30672C16.3354 9.0253 16.4116 9.65216 16.1047 10.3357C15.7881 11.0407 15.1471 11.5589 14.6124 12.0941C13.5411 13.1668 12.471 14.155 12.0455 15.6561C11.3163 15.0512 11.5479 13.8384 11.866 13.0861C12.2914 12.0799 13.2151 11.3837 13.982 10.6496C14.767 9.89794 15.485 9.03296 16.2787 8.30672ZM9.88384 22.735C10.3437 22.8702 10.2891 23.1729 10.2891 23.5917C10.2891 24.4339 10.4342 25.4244 10.2789 26.2512C10.2284 26.5195 9.92793 26.4833 9.88384 26.7479H11.415L11.02 26.2512L11.0097 24.9894V22.3743C10.7303 22.3972 9.97913 22.4473 9.88384 22.735ZM13.8469 22.5546C13.2671 22.5546 13.1602 22.6325 12.9762 23.1859C12.9414 23.2905 12.8116 23.5425 12.9283 23.6329C13.044 23.7224 13.1676 23.5284 13.2232 23.4556C13.4421 23.1689 13.6918 22.8814 13.8469 22.5546ZM-4.79735 22.6899L-4.84239 23.772H-4.61721C-4.51273 23.0636 -4.06347 23.0055 -3.44632 23.0055V25.1698L-3.46587 26.2066L-4.03177 26.7479H-2.09529L-2.66119 26.251L-2.68074 25.2149V23.0055C-2.04179 23.0055 -1.65607 23.0721 -1.50984 23.772H-1.28467L-1.32971 22.6899H-4.79735ZM18.3505 22.7241C17.8611 22.9 18.1427 23.6541 18.6185 23.4558C19.0656 23.2695 18.8075 22.5598 18.3505 22.7241ZM0.516694 26.0264C0.318317 26.1012 0.142143 26.2379 -0.0687534 26.2798C-0.748187 26.415 -0.948409 25.7541 -1.10454 25.2599C-0.803623 25.204 -0.505496 25.2376 -0.203856 25.202C0.000464647 25.1778 0.38105 25.2131 0.534572 25.053C0.88584 24.6868 0.208523 24.0532 -0.113788 23.9764C-1.3961 23.6705 -2.23342 25.4333 -1.48589 26.3865C-1.1194 26.8537 -0.435333 26.9504 0.0663499 26.6631C0.311877 26.5225 0.566321 26.3317 0.516694 26.0264ZM3.21875 26.0264C2.91482 26.1526 2.66776 26.362 2.31807 26.2614C1.62391 26.0616 1.34731 24.9895 1.84025 24.458C2.30663 23.9552 2.71158 24.807 3.07338 24.5544C3.31337 24.3869 3.1685 24.0935 2.94787 24.0041C1.57113 23.447 0.165065 25.5629 1.37415 26.5437C1.80463 26.8928 2.39827 26.9142 2.85848 26.6141C3.07041 26.4759 3.27703 26.2915 3.21875 26.0264ZM3.48896 24.1778V24.3131L3.79614 24.5037L3.84924 24.9894L3.81582 26.3372L3.44393 26.7479H4.88503C4.85021 26.5464 4.66751 26.5181 4.59694 26.3396C4.4636 26.0021 4.56974 25.4409 4.56978 25.0796C4.56978 24.9437 4.54236 24.7652 4.61608 24.6435C4.85846 24.2434 5.43548 24.3935 5.53654 24.8091C5.62805 25.1854 5.64719 25.9229 5.541 26.2961C5.48425 26.4957 5.28056 26.5353 5.2453 26.7479H6.64136C6.59962 26.507 6.32725 26.5011 6.28775 26.2517C6.17521 25.5406 6.6238 23.9678 5.47047 23.9532C5.34492 23.9515 5.22576 23.9641 5.1102 24.0163C4.91849 24.1029 4.74362 24.2408 4.56978 24.3582V23.9524L3.48896 24.1778ZM7.9924 23.9735C6.21597 24.309 6.72387 27.1367 8.53281 26.8103C10.3771 26.4775 9.87902 23.6171 7.9924 23.9735ZM12.766 23.9735C10.9847 24.3099 11.4799 27.1399 13.3064 26.8103C15.1434 26.4788 14.6428 23.619 12.766 23.9735ZM15.4681 25.801C15.3192 25.9111 15.0278 26.0353 14.9307 26.1904C14.7653 26.4548 15.1717 26.7437 15.378 26.793C15.2131 26.9958 14.9135 27.1245 14.8197 27.3791C14.6435 27.8575 15.1583 28.1992 15.5582 28.268C16.3529 28.4047 17.5386 27.9867 17.5314 27.0184C17.5259 26.2775 16.7679 26.2995 16.2337 26.2969C16.0802 26.2963 15.6073 26.2915 15.6509 26.0311C15.6877 25.8116 16.2491 25.8926 16.4138 25.8442C17.1088 25.6398 17.2979 25.0267 17.0443 24.4033C17.3317 24.4362 17.6167 24.339 17.5847 23.9975C16.8878 24.1637 16.1696 23.7627 15.5131 24.0504C14.7347 24.3915 14.7008 25.4352 15.4681 25.801ZM17.8099 24.1327V24.3582C18.3199 24.4624 18.3017 25.8816 18.1367 26.2961C18.0512 26.511 17.8057 26.5119 17.7648 26.7479C18.09 26.7479 19.1806 26.9155 19.296 26.5675L18.905 26.3394L18.8457 25.5756V23.9524L17.8099 24.1327ZM20.8272 23.9735C20.1054 24.1097 19.4631 24.7719 19.4786 25.5305C19.496 26.3801 20.3616 27.0854 21.1875 26.751C21.3468 26.6865 21.9218 26.369 21.8064 26.1358C21.7298 25.981 21.3113 26.2699 21.1875 26.2872C20.8428 26.3353 20.5035 26.0833 20.332 25.801C20.072 25.3729 20.1196 24.3158 20.7822 24.2808C21.0609 24.266 21.3854 24.6958 21.6275 24.5729C21.8546 24.4576 21.7603 24.1541 21.5901 24.043C21.3875 23.9107 21.0559 23.9303 20.8272 23.9735ZM23.169 23.9735C21.391 24.3093 21.8918 27.1382 23.7094 26.8103C25.5506 26.4781 25.0514 23.6179 23.169 23.9735ZM-1.05951 24.9443C-0.999749 24.6552 -0.870726 24.1504 -0.474739 24.2005C-0.240515 24.2301 0.0580633 24.6639 -0.141619 24.8721C-0.304553 25.0419 -0.839967 24.9443 -1.05951 24.9443ZM8.12768 24.1976C8.41581 24.1216 8.65706 24.3407 8.77126 24.5838C8.98027 25.0287 9.13564 26.3963 8.4871 26.5638C8.18685 26.6413 7.94448 26.4165 7.82816 26.1617C7.61987 25.7056 7.45924 24.3737 8.12768 24.1976ZM12.9012 24.1976C13.1845 24.1235 13.4219 24.3451 13.5352 24.5836C13.7397 25.014 13.8992 26.3942 13.2612 26.5531C12.9308 26.6355 12.703 26.3904 12.5768 26.1166C12.3634 25.6533 12.2321 24.3723 12.9012 24.1976ZM15.9204 24.2052C16.5759 23.9581 16.7314 25.4347 16.188 25.6316C15.5594 25.8594 15.3833 24.4077 15.9204 24.2052ZM23.3043 24.1976C24.1529 23.9742 24.1199 25.5059 24.0614 25.9814C24.0343 26.2015 23.9396 26.4713 23.7076 26.5443C22.7191 26.8554 22.4856 24.4131 23.3043 24.1976ZM15.7835 26.9009C16.0556 26.8375 16.581 26.8228 16.809 27.005C17.2035 27.3202 16.8326 27.8286 16.4589 27.9245C16.1609 28.001 15.7934 27.9591 15.5683 27.7302C15.2969 27.4542 15.3876 26.9931 15.7835 26.9009ZM-5.29274 28.1456V28.326C-4.66275 28.4636 -4.95737 29.0426 -4.8424 29.4983C-5.45684 29.5305 -6.00269 29.5485 -6.45529 30.0411C-7.10738 30.7509 -6.90453 32.1242 -5.87819 32.3601C-5.46045 32.456 -5.20541 32.2058 -4.8424 32.0683L-4.88743 32.3839C-4.70099 32.3687 -3.81232 32.2777 -3.7504 32.0987C-3.69767 31.9464 -4.01781 31.9149 -4.08843 31.8286C-4.18489 31.7105 -4.16666 31.5342 -4.16688 31.392C-4.16882 30.2347 -4.16688 29.0774 -4.16688 27.9202L-5.29274 28.1456ZM0.696831 28.2809C0.754475 28.6266 1.24373 28.5056 1.26989 28.9572C1.29696 29.4231 1.19901 29.9353 1.15483 30.4C1.11407 30.8289 1.14717 31.2888 1.02455 31.7075C0.930064 32.0302 0.542904 32.0096 0.516694 32.3388H2.00283V32.1134C1.81967 32.0777 1.61427 32.0545 1.50466 31.883C1.32718 31.6052 1.41328 31.1138 1.44958 30.8058C1.51538 30.2473 1.50745 29.6552 1.50745 29.0925H1.55248C1.83836 29.9333 2.22268 30.7475 2.55225 31.5723C2.60521 31.7049 2.76616 32.3419 2.978 32.2407C3.19335 32.1378 3.31648 31.6 3.40565 31.392L4.08706 29.8139C4.19758 29.5574 4.28017 29.2467 4.47971 29.0474C4.30264 29.6485 4.47971 30.5305 4.47971 31.1665C4.47971 31.6285 4.51156 32.0025 3.98434 32.1134V32.3388H5.74068V32.1134C5.52677 32.0711 5.32803 32.0227 5.24053 31.7975C5.13298 31.521 5.20675 31.1429 5.19959 30.8509C5.18396 30.2116 5.00738 29.4048 5.16955 28.7775C5.22963 28.5452 5.44498 28.5113 5.65061 28.5063V28.2809L4.49728 28.3272L4.07441 29.1375L3.17372 31.0763L2.29213 29.0925L1.89519 28.3272L0.696831 28.2809ZM12.1356 29.8139L12.5859 29.859C12.5859 30.5654 12.2228 32.5531 13.3965 32.3743C13.6195 32.3404 13.8211 32.1992 14.027 32.1134L13.982 31.8879C12.9511 32.1232 13.2614 30.5203 13.2614 29.859C13.3362 29.859 14.2143 29.8033 13.8704 29.6156C13.7015 29.5235 13.4348 29.6745 13.3077 29.4839C13.1849 29.2997 13.2614 28.901 13.2614 28.6867C13.0401 28.7392 12.7055 28.9226 12.6131 29.1454C12.5684 29.2532 12.6057 29.383 12.5397 29.484C12.4454 29.6279 12.2435 29.6541 12.1356 29.8139ZM-2.77081 30.8058C-2.38109 30.8058 -1.98663 30.7748 -1.59992 30.7285C-1.46725 30.7126 -1.28085 30.7392 -1.17673 30.6371C-1.04096 30.5039 -1.12188 30.2305 -1.19101 30.0844C-1.38574 29.6725 -1.82838 29.4378 -2.27544 29.513C-3.60179 29.7359 -4.00921 32.0237 -2.54564 32.3601C-2.14898 32.4512 -1.73192 32.3425 -1.42748 32.0764C-1.34948 32.0083 -1.12278 31.8175 -1.20249 31.6923C-1.26712 31.5908 -1.77943 31.8515 -1.91516 31.8551C-2.49083 31.87 -2.76663 31.3067 -2.77081 30.8058ZM7.13674 29.5192C5.26043 29.8579 5.76022 32.7249 7.67715 32.3628C9.41823 32.034 8.92208 29.1969 7.13674 29.5192ZM9.02819 29.7237V29.904C9.55495 30.043 9.49866 31.3855 9.36892 31.842C9.32906 31.9824 8.92168 32.1583 8.99108 32.2691C9.05782 32.3757 9.28439 32.3388 9.38846 32.3388C9.67853 32.339 10.3628 32.4819 10.4243 32.1134C10.0281 32.0324 10.1256 31.7077 10.105 31.3919C10.0745 30.9264 9.86484 29.9733 10.6044 29.9624C11.2591 29.9527 11.1979 31.423 11.074 31.8422C11.0347 31.975 10.7585 32.1211 10.781 32.2403C10.8016 32.3493 10.9755 32.3371 11.0548 32.3386C11.288 32.343 11.9224 32.448 12.1057 32.2934C12.154 32.2526 12.146 32.1965 12.1058 32.154C11.8267 31.8585 11.7753 31.7828 11.7753 31.3469C11.7753 30.6965 11.9132 29.283 10.8295 29.5158C10.5448 29.577 10.3262 29.7936 10.064 29.904V29.4983L9.02819 29.7237ZM14.8376 30.8058C15.2243 30.8058 15.6253 30.7853 16.0085 30.7348C16.1373 30.7178 16.3322 30.7429 16.4317 30.6434C16.964 30.1104 15.8222 29.4469 15.378 29.5118C14.0614 29.7044 13.6041 31.9461 15.0177 32.3483C15.4289 32.4653 15.8584 32.3478 16.1885 32.0895C16.2788 32.0188 16.4838 31.863 16.4381 31.7239C16.3946 31.5918 15.7986 31.857 15.6482 31.8471C15.1186 31.8122 14.8477 31.2795 14.8376 30.8058ZM16.729 29.7688V29.859C17.2339 30.1413 17.2156 31.2982 17.075 31.8422C17.0402 31.9766 16.6681 32.1591 16.737 32.2691C16.8037 32.3757 17.0303 32.3388 17.1344 32.3388H18.3053V32.1134C18.1537 32.1063 17.985 32.0951 17.8821 31.9655C17.6438 31.6658 17.7405 30.4626 18.037 30.2347C18.3218 30.0159 18.6966 30.504 18.8901 30.0374C19.0143 29.738 18.7481 29.4502 18.4404 29.5178C18.1629 29.5788 17.9733 29.8464 17.8549 30.0844H17.8099V29.4983L16.729 29.7688ZM19.2059 29.7237L19.5069 30.1754L19.521 31.6625L19.1688 32.2691L19.5662 32.3388H20.7371V32.1134C20.0626 32.082 20.0112 30.5967 20.4716 30.2399C20.7502 30.024 21.0923 30.4814 21.3145 30.0797C21.4852 29.7712 21.1993 29.4457 20.8723 29.5178C20.5905 29.58 20.4181 29.8817 20.2417 30.0844V29.4983L19.2059 29.7237ZM22.1332 30.8058C22.5369 30.8058 22.9486 30.7766 23.3491 30.7285C23.4888 30.7117 23.6673 30.735 23.7654 30.6111C24.2109 30.0479 23.1212 29.4464 22.6736 29.5118C21.3612 29.7038 20.9044 31.9429 22.3133 32.3483C22.72 32.4653 23.1622 32.3564 23.484 32.0923C23.5723 32.0198 23.7801 31.863 23.7337 31.7244C23.6927 31.6023 23.0896 31.8567 22.9438 31.8471C22.4191 31.8125 22.1535 31.2731 22.1332 30.8058ZM23.8895 29.5884C23.9295 29.8199 24.1588 29.8513 24.2789 30.0413C24.4817 30.3619 24.5999 30.767 24.7308 31.1214C24.8763 31.5153 25.2564 32.147 25.0895 32.5643C24.9647 32.8763 24.3604 33.2304 24.3604 33.5129C24.3604 33.8388 24.8324 33.9924 24.9861 33.6888C25.4434 32.7857 25.7258 31.7412 26.1286 30.8058C26.3053 30.3954 26.4246 29.8948 26.9068 29.7688V29.5884H25.781C25.8145 29.7824 26.0159 29.8184 26.0544 29.9967C26.1371 30.3806 25.7205 31.0694 25.6008 31.437H25.5558C25.4315 31.0547 24.8131 29.9509 25.3306 29.7688V29.5884H23.8895ZM7.27184 29.7475C8.07327 29.6845 8.02594 31.087 7.94668 31.5723C7.90583 31.8225 7.78073 32.1089 7.49701 32.1464C6.6841 32.2536 6.641 30.7619 6.78416 30.2648C6.84964 30.0372 7.00924 29.7682 7.27184 29.7475ZM-5.47287 29.7867C-4.65019 29.6086 -4.88504 30.8036 -4.87418 31.2567C-4.8681 31.5109 -4.79335 31.8393 -5.11345 31.9153C-6.21683 32.1769 -6.43111 29.9942 -5.47287 29.7867ZM-2.77081 30.4902C-2.70704 30.1849 -2.51956 29.6373 -2.09723 29.8024C-1.92939 29.8681 -1.66261 30.2868 -1.85292 30.4438C-1.97767 30.5468 -2.25944 30.4845 -2.41053 30.4942C-2.54019 30.5026 -2.64363 30.5178 -2.77081 30.4902ZM14.8827 30.5353C14.8902 30.2107 15.1104 29.58 15.5562 29.8152C15.7159 29.8994 15.9504 30.2886 15.7561 30.4438C15.5935 30.5739 15.0945 30.5085 14.8827 30.5353ZM23.1239 30.4902L22.1782 30.5353C22.1987 29.6585 23.1212 29.5556 23.1239 30.4902Z" fill="#0658A6"/>
</g>
</g>
<defs>
<clipPath id="clip0_468_506">
<rect width="19.8" height="19.8" fill="white" transform="translate(0.100098 0.0999756)"/>
</clipPath>
</defs>
</svg>
